<svg xmlns="http://www.w3.org/2000/svg" width="640" height="360" viewBox="0 0 640 360" fill="none">
  <rect width="640" height="360" rx="28" fill="#f7f7fb"/>
  <rect x="100" y="36" width="220" height="288" rx="32" fill="#ffffff" stroke="#e6e8ee" stroke-width="2"/>
  <rect x="130" y="78" width="160" height="176" rx="18" fill="#f1f4ff"/>
  <rect x="136" y="90" width="120" height="14" rx="7" fill="#dbe4ff"/>
  <rect x="136" y="118" width="140" height="14" rx="7" fill="#dbe4ff"/>
  <rect x="136" y="146" width="90" height="14" rx="7" fill="#dbe4ff"/>
  <rect x="136" y="186" width="136" height="14" rx="7" fill="#dbe4ff"/>
  <rect x="136" y="214" width="100" height="14" rx="7" fill="#dbe4ff"/>
  <circle cx="210" cy="286" r="16" fill="#eef2ff"/>
  <rect x="360" y="78" width="220" height="240" rx="22" fill="#ffffff" stroke="#e6e8ee" stroke-width="2"/>
  <path d="M400 138H520" stroke="#e6e8ee" stroke-width="2"/>
  <path d="M400 178H520" stroke="#e6e8ee" stroke-width="2"/>
  <path d="M400 218H520" stroke="#e6e8ee" stroke-width="2"/>
  <circle cx="382" cy="138" r="10" fill="#2f6bff"/>
  <circle cx="382" cy="178" r="10" fill="#2f6bff"/>
  <circle cx="382" cy="218" r="10" fill="#2f6bff"/>
  <rect x="390" y="110" width="140" height="18" rx="9" fill="#eef2ff"/>
</svg>
