<svg xmlns="http://www.w3.org/2000/svg" width="640" height="360" viewBox="0 0 640 360" fill="none">
  <rect width="640" height="360" rx="28" fill="#f7f7fb"/>
  <rect x="48" y="56" width="360" height="220" rx="18" fill="#ffffff" stroke="#e6e8ee" stroke-width="2"/>
  <path d="M88 96H368" stroke="#e6e8ee" stroke-width="2"/>
  <path d="M88 136H368" stroke="#e6e8ee" stroke-width="2"/>
  <path d="M88 176H368" stroke="#e6e8ee" stroke-width="2"/>
  <path d="M88 216H368" stroke="#e6e8ee" stroke-width="2"/>
  <path d="M128 96V236" stroke="#e6e8ee" stroke-width="2"/>
  <path d="M208 96V236" stroke="#e6e8ee" stroke-width="2"/>
  <path d="M288 96V236" stroke="#e6e8ee" stroke-width="2"/>
  <rect x="424" y="86" width="168" height="190" rx="18" fill="#ffffff" stroke="#e6e8ee" stroke-width="2"/>
  <path d="M456 240L492 200L524 224L568 154" stroke="#2f6bff" stroke-width="6" stroke-linecap="round" stroke-linejoin="round"/>
  <circle cx="456" cy="240" r="8" fill="#2f6bff"/>
  <circle cx="492" cy="200" r="8" fill="#2f6bff"/>
  <circle cx="524" cy="224" r="8" fill="#2f6bff"/>
  <circle cx="568" cy="154" r="8" fill="#2f6bff"/>
  <rect x="460" y="110" width="88" height="14" rx="7" fill="#eef2ff"/>
  <rect x="460" y="132" width="122" height="14" rx="7" fill="#eef2ff"/>
</svg>
